HIERARCHY
ROOT hip
{
	OFFSET 0.000000 0.000000 0.000000 
	CHANNELS 6 Xposition Yposition Zposition Xrotation Zrotation Yrotation
	JOINT abdomen
	{
		OFFSET 0.000000 3.402643 0.000000 
		CHANNELS 3 Xrotation Zrotation Yrotation
		JOINT chest
		{
			OFFSET 0.000000 8.438565 -0.680529 
			CHANNELS 3 Xrotation Zrotation Yrotation
			JOINT neck
			{
				OFFSET 0.000000 10.207942 -0.272212 
				CHANNELS 3 Xrotation Zrotation Yrotation
				JOINT head
				{
					OFFSET 0.000000 3.130431 0.000000 
					CHANNELS 3 Xrotation Zrotation Yrotation
					End Site
					{
						OFFSET 0.000000 3.130435 0.000000 
					}
				}
			}
			JOINT lCollar
			{
				OFFSET 3.470700 6.669187 -0.816635 
				CHANNELS 3 Yrotation Zrotation Xrotation
				JOINT lShldr
				{
					OFFSET 3.198488 0.000000 0.000000 
					CHANNELS 3 Zrotation Yrotation Xrotation
					JOINT lForeArm
					{
						OFFSET 10.139888 0.000000 0.000000 
						CHANNELS 3 Yrotation Zrotation Xrotation
						JOINT lHand
						{
							OFFSET 8.370511 0.000000 0.000000 
							CHANNELS 3 Zrotation Yrotation Xrotation
							End Site
							{
								OFFSET 4.083176 0.000000 0.000000 
							}
						}
					}
				}
			}
			JOINT rCollar
			{
				OFFSET -3.470700 6.669187 -0.816635 
				CHANNELS 3 Yrotation Zrotation Xrotation
				JOINT rShldr
				{
					OFFSET -3.198488 0.000000 0.000000 
					CHANNELS 3 Zrotation Yrotation Xrotation
					JOINT rForeArm
					{
						OFFSET -10.139888 0.000000 0.000000 
						CHANNELS 3 Yrotation Zrotation Xrotation
						JOINT rHand
						{
							OFFSET -8.370511 0.000000 0.000000 
							CHANNELS 3 Zrotation Yrotation Xrotation
							End Site
							{
								OFFSET -4.083176 0.000000 0.000000 
							}
						}
					}
				}
			}
		}
	}
	JOINT lThigh
	{
		OFFSET 5.308129 -1.633274 1.361059 
		CHANNELS 3 Xrotation Zrotation Yrotation
		JOINT lShin
		{
			OFFSET -2.041588 -20.007561 0.000000 
			CHANNELS 3 Xrotation Zrotation Yrotation
			JOINT lFoot
			{
				OFFSET 0.000000 -19.190928 -1.224953 
				CHANNELS 3 Xrotation Yrotation Zrotation
				End Site
				{
					OFFSET 0.000000 -2.449906 4.627600 
				}
			}
		}
	}
	JOINT rThigh
	{
		OFFSET -5.308129 -1.633274 1.361059 
		CHANNELS 3 Xrotation Zrotation Yrotation
		JOINT rShin
		{
			OFFSET 2.041588 -20.007561 0.000000 
			CHANNELS 3 Xrotation Zrotation Yrotation
			JOINT rFoot
			{
				OFFSET 0.000000 -19.190928 -1.224953 
				CHANNELS 3 Xrotation Yrotation Zrotation
				End Site
				{
					OFFSET 0.000000 -2.449906 4.627600 
				}
			}
		}
	}
}
MOTION
Frames: 15
Frame Time: 0.011111
33.457184 56.552856 -0.118572 12.110617 -0.883308 0.159916 22.067307 -10.358727 -1.270290 -14.354608 7.149137 1.320825 -15.359572 -0.945319 -1.275019 36.798920 9.738054 0.355821 -2.206047 -4.843775 0.617946 -58.657131 -49.126301 31.867849 -43.249149 5.845266 5.553543 8.524705 12.647240 -66.282600 -0.446187 9.003916 1.039738 53.013515 19.557192 17.448477 50.488331 -7.819206 8.358334 -8.534408 -12.637552 32.327984 -15.764792 4.793523 -7.488500 22.884056 -5.659500 -3.928610 -26.640415 0.918955 -1.638749 -25.795790 -14.714987 8.447741 29.147549 5.360765 4.717224 -23.704620 -2.188875 1.504030 
33.358772 56.538170 0.343074 11.855191 -0.969692 0.864143 22.422176 -10.206737 -1.763981 -14.311450 7.403460 1.199586 -15.213145 -0.737004 -1.416862 36.966915 9.714650 0.170350 -2.206047 -4.843775 0.617946 -58.899010 -50.099174 32.762516 -43.126400 5.803905 5.504390 8.524705 12.647240 -66.643929 -0.446187 9.003916 1.039738 53.492725 18.382509 17.046524 50.237740 -7.764135 8.257939 -8.534408 -12.637552 32.044777 -14.878831 4.803719 -7.744190 22.670015 -5.673388 -3.892383 -26.884060 0.586907 -1.771767 -26.599297 -15.145649 8.913127 28.645597 5.394670 4.661370 -23.373287 -3.040213 1.194379 
33.252502 56.511513 0.810870 11.694816 -0.890263 1.650629 22.656418 -10.189918 -2.376817 -14.159760 7.658373 1.065095 -15.105015 -0.372187 -1.538185 36.997528 9.517840 0.010013 -2.206047 -4.843775 0.617946 -59.254608 -51.039021 33.529831 -43.095600 5.793825 5.496019 8.524705 12.647240 -67.229874 -0.446187 9.003916 1.039738 54.145554 17.337343 16.410681 50.038769 -7.716546 8.178866 -8.534408 -12.637552 31.888527 -14.103172 4.627115 -7.935261 22.587839 -5.680140 -3.885672 -27.169542 0.086484 -1.964548 -27.469265 -15.839286 9.146154 28.115572 5.415024 4.599673 -22.995096 -3.950452 0.900859 
33.142132 56.474262 1.287209 11.659142 -0.645348 2.449438 22.759096 -10.290544 -3.099493 -13.967869 7.945120 0.909377 -14.919734 -0.198747 -1.628143 36.848881 9.429395 -0.115929 -2.206047 -4.843775 0.617946 -59.818981 -51.882317 34.272018 -43.166710 5.813373 5.522817 8.524705 12.647240 -67.718147 -0.446187 9.003916 1.039738 54.857079 16.273481 15.804150 49.861397 -7.676378 8.109851 -8.534408 -12.637552 31.458843 -13.478362 4.237002 -8.168511 22.630100 -5.673128 -3.879105 -27.475599 -0.412551 -2.194445 -28.462900 -16.775848 9.165408 27.564268 5.443739 4.517563 -22.564871 -4.710765 0.676767 
33.021851 56.427109 1.774825 11.661965 -0.429812 3.142050 22.854803 -10.363289 -3.707472 -13.856259 8.133239 0.775898 -14.890282 0.437396 -1.747115 36.908119 8.569836 -0.371248 -2.206047 -4.843775 0.617946 -60.404991 -52.609371 35.431297 -43.340664 5.868715 5.579999 8.524705 12.647240 -67.190804 -0.446187 9.003916 1.039738 55.784199 15.163893 14.973815 49.662735 -7.626680 8.023218 -8.534408 -12.637552 30.667822 -12.925742 3.934659 -8.388176 22.730968 -5.669776 -3.906705 -27.766308 -0.495065 -2.197562 -29.463230 -17.623291 9.087651 27.031317 5.473846 4.457756 -22.013784 -5.393017 0.525304 
32.882774 56.369019 2.276791 11.636003 -0.370560 3.682660 22.983253 -10.265285 -4.113191 -13.774851 8.279788 0.672890 -15.066890 0.815056 -1.827976 37.180214 8.205302 -0.468729 -2.206047 -4.843775 0.617946 -61.040634 -53.300091 36.853230 -43.575909 5.944474 5.672193 8.524705 12.647240 -66.204475 -0.446187 9.003916 1.039738 56.835392 14.231839 13.741221 49.382427 -7.566674 7.913066 -8.534408 -12.637552 30.091652 -12.416668 3.905213 -8.505910 22.901651 -5.674484 -3.904031 -28.146080 -0.326110 -2.050531 -30.314081 -18.190126 8.969350 26.418556 5.501963 4.379580 -21.185966 -6.047028 0.460361 
32.720463 56.307861 2.794477 11.541388 -0.426317 4.179029 23.080647 -10.048473 -4.420452 -13.693029 8.445181 0.581789 -15.272151 -0.223527 -1.717484 37.725517 10.131029 -0.010995 -2.206047 -4.843775 0.617946 -61.795277 -53.693451 38.510605 -43.985523 6.072776 5.823792 8.524705 12.647240 -65.657608 -0.446187 9.003916 1.039738 57.786331 13.444739 12.618007 48.787857 -7.416658 7.673678 -8.534408 -12.637552 29.837746 -11.881104 4.061637 -8.643492 23.114021 -5.664490 -3.959444 -28.614895 -0.368527 -2.016267 -30.888056 -18.534859 8.802263 25.664774 5.532665 4.279963 -20.238388 -6.740255 0.412309 
32.545853 56.236778 3.328564 11.320428 -0.468217 4.617195 23.253092 -9.785960 -4.756591 -13.661203 8.572362 0.481670 -15.166554 -0.745064 -1.638349 37.907528 11.105960 0.278948 -2.206047 -4.843775 0.617946 -62.607029 -53.776287 40.139130 -44.600704 6.259925 6.055294 8.524705 12.647240 -65.472061 -0.446187 9.003916 1.039738 58.724812 12.823409 11.443671 47.894836 -7.195331 7.331343 -8.534408 -12.637552 29.222517 -11.149132 4.237346 -8.837253 23.307997 -5.650373 -3.984109 -29.150120 -0.887344 -2.239728 -31.218777 -18.827278 8.547422 24.858625 5.570856 4.156755 -19.280392 -7.204333 0.445345 
32.371582 56.153408 3.887254 11.091793 -0.360878 4.925134 23.454245 -9.659929 -5.092385 -13.660425 8.620258 0.388041 -15.164623 -0.326203 -1.660877 38.056477 10.578744 0.260053 -2.206047 -4.843775 0.617946 -63.508698 -53.903378 41.591370 -45.083687 6.404774 6.236882 8.524705 12.647240 -65.130257 -0.446187 9.003916 1.039738 59.937664 12.157063 9.616796 47.407925 -7.068762 7.134351 -8.534408 -12.637552 28.099470 -10.326343 4.236907 -9.055913 23.472353 -5.634627 -3.996095 -29.705832 -1.293843 -2.390002 -31.516167 -19.186459 8.239264 24.059406 5.610362 4.063530 -18.416639 -7.467687 0.552209 
32.185009 56.060806 4.474649 10.990833 -0.151934 5.173593 23.495934 -9.670773 -5.434126 -13.619429 8.706842 0.303932 -15.399113 -0.400493 -1.646677 38.568222 10.988691 0.421846 -2.206047 -4.843775 0.617946 -64.448982 -53.973919 43.239143 -45.536446 6.536181 6.403330 8.524705 12.647240 -64.427132 -0.446187 9.003916 1.039738 61.342979 11.024471 7.734653 47.978500 -7.219368 7.357522 -8.534408 -12.637552 27.357279 -9.561712 4.148243 -9.260221 23.640579 -5.644727 -4.022637 -30.240595 -1.391304 -2.368103 -31.866749 -19.605936 7.795017 23.290504 5.644353 3.942381 -17.619228 -7.549514 0.670889 
31.974857 55.962734 5.093481 10.948631 0.056043 5.402236 23.414988 -9.656096 -5.814164 -13.517824 8.863203 0.215922 -15.604457 -0.556002 -1.599618 39.023170 11.268940 0.591528 -2.206047 -4.843775 0.617946 -65.488152 -53.912743 44.736603 -46.072727 6.691685 6.607360 8.524705 12.647240 -63.919323 -0.446187 9.003916 1.039738 62.367958 10.472363 6.268395 47.500992 -7.092559 7.172490 -8.534408 -12.637552 27.064308 -8.836298 4.110706 -9.386292 23.795275 -5.624962 -4.042647 -30.704388 -1.361776 -2.299464 -32.159054 -19.937407 7.297226 22.520361 5.669847 3.859213 -16.893303 -7.621086 0.792474 
31.745575 55.864658 5.738280 10.887952 0.275483 5.582520 23.309675 -9.592197 -6.208828 -13.338928 8.923486 0.122942 -15.738928 -0.162326 -1.555508 39.159588 10.578858 0.622379 -2.206047 -4.843775 0.617946 -66.467949 -53.809303 45.928642 -46.568035 6.828648 6.797756 8.524705 12.647240 -63.636120 -0.446187 9.003916 1.039738 63.439213 10.096574 4.558514 46.983368 -6.954474 6.968905 -8.534408 -12.637552 26.429544 -8.019531 4.128208 -9.390740 23.935610 -5.621556 -4.084374 -31.098640 -1.633508 -2.426668 -32.277534 -20.123554 6.962283 21.675316 5.707973 3.740810 -16.203161 -7.799818 0.861856 
31.504671 55.767620 6.397774 10.836322 0.458202 5.795302 23.161024 -9.367241 -6.707997 -13.161757 8.900939 -0.018901 -15.766657 0.361419 -1.530432 39.122242 9.562103 0.534681 -2.206047 -4.843775 0.617946 -67.387611 -53.604656 47.022133 -47.023056 6.954834 6.980760 8.524705 12.647240 -63.216194 -0.446187 9.003916 1.039738 64.499504 9.798627 2.681098 46.475986 -6.809987 6.770057 -8.534408 -12.637552 25.492046 -7.245798 4.218623 -9.324203 24.097521 -5.615304 -4.097137 -31.445194 -2.125247 -2.659255 -32.248245 -20.182079 6.600978 20.872757 5.727163 3.623378 -15.569532 -8.104043 0.905679 
31.252493 55.675354 7.080846 10.783807 0.651352 6.059387 22.963976 -9.066247 -7.218827 -13.053257 8.910284 -0.187848 -15.737040 0.518964 -1.514085 39.048374 9.098416 0.453682 -2.206047 -4.843775 0.617946 -68.342323 -53.304016 48.180397 -47.343967 7.039981 7.100823 8.524705 12.647240 -62.747444 -0.446187 9.003916 1.039738 65.443260 9.440360 0.794957 46.084095 -6.703753 6.625051 -8.534408 -12.637552 24.544781 -6.397794 4.293010 -9.220992 24.218378 -5.615969 -4.088367 -31.695332 -2.623863 -2.932880 -32.157349 -20.194798 6.170911 20.247824 5.752840 3.551822 -15.086426 -8.274976 0.970049 
30.981178 55.583096 7.795012 10.731857 0.765889 6.268261 22.737774 -8.636617 -7.565019 -12.965562 8.867551 -0.326026 -15.784763 0.327078 -1.398858 38.989353 9.153787 0.606027 -2.206047 -4.843775 0.617946 -69.313950 -53.024055 49.379879 -47.540890 7.092030 7.174732 8.524705 12.647240 -62.356819 -0.446187 9.003916 1.039738 66.269630 9.080401 -1.111471 45.589264 -6.562619 6.437526 -8.534408 -12.637552 23.343605 -5.494282 4.519277 -9.293299 24.146225 -5.624961 -4.083965 -31.919981 -2.929153 -3.111014 -31.979717 -20.027891 5.770211 19.706488 5.764043 3.484868 -14.509092 -8.173375 1.077922 
